<?xml version="1.0" standalone="no"?>
<!DOCTYPE svg PUBLIC "-//W3C//DTD SVG 20010904//EN"
 "http://www.w3.org/TR/2001/REC-SVG-20010904/DTD/svg10.dtd">
<svg version="1.0" xmlns="http://www.w3.org/2000/svg"
 width="2000.000000pt" height="2000.000000pt" viewBox="0 0 2000.000000 2000.000000"
 preserveAspectRatio="xMidYMid meet">

<g transform="translate(0.000000,2000.000000) scale(0.100000,-0.100000)"
fill="#000000" stroke="none">
<path d="M6233 17868 c-6 -7 -16 -42 -22 -78 -21 -112 -87 -356 -157 -580
-264 -848 -301 -1022 -291 -1390 7 -268 43 -417 154 -650 30 -63 64 -147 74
-187 67 -254 257 -621 567 -1093 63 -96 117 -182 120 -190 3 -8 -20 9 -52 37
-93 85 -245 199 -511 383 -361 250 -511 367 -673 525 -79 77 -151 140 -160
140 -15 0 -17 -18 -16 -190 1 -156 5 -209 23 -295 76 -361 242 -609 491 -735
126 -64 222 -87 525 -125 277 -35 400 -65 520 -124 139 -69 195 -126 304 -310
l91 -154 0 -111 c0 -61 -4 -111 -9 -111 -5 0 -15 7 -22 16 -8 10 -102 83 -209
164 -205 155 -322 266 -384 363 -25 39 -43 57 -54 55 -15 -3 -17 -22 -16 -173
1 -153 4 -179 28 -260 84 -285 248 -457 569 -597 l97 -42 0 -1352 0 -1351 -65
-18 c-36 -9 -65 -21 -65 -27 0 -5 -4 -7 -9 -4 -5 4 -22 1 -38 -5 -15 -6 -29
-10 -30 -10 -7 0 -109 -32 -118 -37 -5 -4 -17 -8 -26 -9 -9 -1 -52 -14 -95
-28 -44 -13 -84 -25 -91 -25 -7 0 -41 57 -77 128 -150 294 -301 519 -445 662
-147 146 -274 204 -446 203 -84 -1 -160 -19 -245 -57 -12 -5 -16 1 -18 26 -1
17 -8 38 -14 45 -18 22 -81 16 -119 -12 -86 -62 -123 -79 -178 -83 -51 -4 -64
0 -155 47 -55 28 -106 51 -113 51 -31 0 -71 -31 -93 -73 l-23 -44 -61 27 c-90
40 -160 55 -266 54 -110 0 -191 -23 -286 -80 -169 -101 -388 -404 -594 -819
-110 -222 -159 -341 -204 -498 -74 -256 -83 -429 -31 -612 6 -22 29 -13 -340
-130 -77 -25 -147 -48 -155 -52 -8 -3 -18 -6 -22 -5 -4 1 -25 -5 -48 -13 -31
-11 -42 -12 -45 -2 -24 77 -115 558 -115 612 0 36 -19 58 -42 50 -11 -4 -18
-40 -27 -138 -12 -140 -50 -395 -79 -537 l-17 -85 -80 -26 c-91 -30 -88 -18
-45 -154 16 -49 31 -109 35 -132 4 -24 10 -43 15 -43 5 0 5 -15 0 -33 -14 -52
-50 -314 -58 -427 l-8 -105 -76 235 c-42 129 -100 308 -128 398 -29 92 -56
162 -63 162 -7 0 -58 -23 -115 -50 -131 -65 -227 -151 -274 -248 -30 -61 -33
-75 -33 -162 0 -205 100 -360 272 -422 94 -33 321 -35 406 -3 12 5 15 -18 20
-142 12 -310 101 -594 260 -832 31 -45 66 -108 77 -139 38 -101 141 -292 228
-421 146 -218 287 -399 611 -785 19 -23 20 -24 -100 56 -115 75 -251 152 -559
316 -392 208 -540 299 -733 455 -57 45 -105 77 -115 75 -15 -3 -17 -15 -14
-83 3 -95 41 -288 77 -400 80 -245 228 -462 391 -572 184 -125 298 -150 715
-158 296 -6 394 -15 497 -47 93 -28 199 -85 250 -135 37 -35 43 -46 38 -70 -3
-15 -10 -125 -17 -243 -11 -200 -11 -218 5 -242 27 -41 115 -103 181 -128 77
-28 217 -37 322 -21 76 12 279 74 297 91 5 5 24 134 43 287 61 506 185 1409
358 2617 30 208 55 384 55 391 0 11 139 75 162 75 11 0 122 -398 306 -1098
l70 -262 -53 -263 c-75 -370 -114 -542 -217 -947 -50 -195 -92 -369 -95 -386
-4 -27 2 -36 49 -79 29 -26 77 -59 107 -72 161 -72 422 -80 559 -18 28 13 52
26 52 29 0 3 54 202 119 443 139 510 231 873 231 913 0 4 -19 16 -42 26 -84
37 -182 129 -245 227 -44 69 -122 233 -149 313 -36 107 -74 297 -74 368 l0 60
33 -31 c42 -39 84 -67 305 -201 107 -66 182 -106 182 -98 0 15 -166 845 -278
1391 -67 326 -71 347 -76 520 -3 99 -9 234 -12 301 l-7 121 34 13 c39 15 42
16 89 25 l35 6 33 -68 c52 -106 156 -282 204 -344 191 -249 259 -299 403 -299
124 0 227 57 276 152 67 132 66 374 -6 718 -14 68 -24 124 -23 125 2 1 19 6
38 12 22 6 34 15 32 24 -2 10 0 11 7 4 8 -8 12 -258 13 -799 l3 -787 100 73
c55 40 171 124 258 187 l157 113 0 682 0 681 208 64 c114 36 211 67 215 71 4
4 3 20 -4 36 -6 16 -12 36 -14 44 -19 75 -78 256 -86 258 -5 2 -7 8 -3 13 3 5
2 9 -2 9 -10 0 -618 -191 -629 -198 -5 -3 -16 -7 -25 -8 -19 -1 -251 -74 -265
-82 -5 -4 -19 -8 -30 -9 -23 -4 -145 -43 -160 -52 -5 -3 -17 -6 -25 -6 -17 0
-17 0 9 -75 11 -31 20 -91 23 -140 l3 -84 -180 -28 c-99 -15 -210 -37 -247
-48 -36 -11 -70 -20 -76 -20 -14 0 -42 121 -42 184 0 49 -2 54 -20 49 -11 -3
-17 -10 -13 -16 3 -6 1 -7 -5 -3 -10 6 -469 -133 -912 -276 -69 -22 -157 -50
-197 -61 -42 -11 -70 -24 -66 -30 3 -6 1 -7 -5 -3 -12 7 -193 -44 -188 -53 2
-3 -10 -7 -27 -8 -32 -2 -357 104 -357 116 0 8 44 23 190 67 52 16 97 31 100
34 3 3 11 5 18 6 38 3 43 5 37 14 -3 5 0 7 7 5 7 -3 92 20 188 51 96 30 206
64 244 75 86 25 109 37 99 52 -5 8 -2 8 9 -1 13 -11 27 -9 80 8 34 12 68 26
74 31 6 5 13 7 16 4 2 -3 54 11 114 30 60 19 112 35 117 35 4 0 24 7 45 16 20
10 46 19 57 21 62 11 263 79 258 87 -3 5 -2 6 3 3 13 -7 311 79 349 101 5 3
16 7 25 7 17 2 241 72 280 88 14 5 31 11 38 13 50 10 112 29 112 34 0 3 9 6
20 7 36 3 159 46 154 55 -3 4 2 5 10 2 13 -5 184 44 196 56 3 3 12 5 20 6 27
2 325 98 328 106 2 5 7 6 11 4 6 -4 160 40 168 48 2 1 -16 61 -38 132 -23 71
-43 136 -46 145 -4 14 -10 15 -38 6 -19 -5 -33 -13 -31 -16 2 -3 -8 -6 -22 -6
-15 -1 -37 -4 -49 -9 l-23 -7 0 2860 0 2861 900 0 900 0 0 215 0 215 -1085 0
c-1064 0 -1087 0 -1125 -20 -47 -24 -84 -71 -99 -125 -8 -28 -11 -434 -11
-1349 l0 -1310 -103 170 c-57 93 -194 304 -304 469 -319 480 -387 590 -424
696 l-32 94 57 99 c166 286 276 560 307 760 25 162 -43 476 -165 756 -40 92
-86 166 -101 163 -5 -1 -31 -170 -56 -375 -26 -205 -58 -443 -73 -529 -14 -85
-32 -211 -41 -279 -16 -133 -19 -402 -5 -485 4 -27 6 -52 5 -54 -2 -1 -41 73
-87 165 -228 459 -245 714 -81 1191 35 103 87 253 114 332 87 253 127 515 115
756 -4 72 -18 243 -32 380 -14 138 -28 324 -31 415 -5 151 -12 190 -33 190 -4
0 -12 -6 -17 -12z m-1957 -8805 c-14 -145 -57 -519 -62 -542 -3 -13 -7 -21
-10 -18 -3 3 -19 1 -35 -3 -28 -8 -29 -8 -29 27 0 27 -8 43 -34 69 -19 19 -42
34 -51 34 -9 0 -15 3 -13 8 2 4 35 70 74 147 39 77 91 186 114 243 24 56 45
102 48 102 2 0 1 -30 -2 -67z m1045 -1100 c58 -33 87 -89 67 -131 -17 -35 -54
-53 -100 -50 l-36 3 39 -33 c33 -28 39 -40 39 -71 0 -57 -25 -74 -98 -69 l-58
4 32 -28 c60 -53 69 -127 19 -150 -32 -14 -90 2 -161 44 l-51 30 34 51 c74
111 110 220 120 368 l6 96 51 -19 c28 -11 72 -31 97 -45z m-1649 -46 c53 -34
104 -67 114 -73 18 -10 -107 -54 -571 -200 -82 -25 -154 -49 -160 -52 -5 -4
-16 -7 -23 -8 -45 -7 -110 -29 -106 -36 3 -4 -1 -5 -8 -3 -8 3 -33 -1 -57 -10
-67 -23 -68 -23 -75 58 -4 39 -10 88 -13 108 -5 33 -3 37 20 43 15 3 39 11 54
18 15 6 35 12 43 14 38 7 165 49 168 56 2 5 7 6 12 3 6 -4 119 30 170 51 8 4
22 8 30 9 15 2 160 45 235 70 22 7 47 14 55 14 8 0 58 -28 112 -62z m440 -413
c29 -15 30 -17 24 -67 -3 -29 -51 -763 -107 -1632 -55 -869 -104 -1588 -108
-1598 -5 -14 -16 -5 -62 50 -31 37 -154 183 -274 323 -119 140 -262 310 -317
378 -113 139 -193 277 -185 320 3 15 35 99 71 187 110 269 165 483 172 675 5
111 3 136 -20 223 -57 221 -214 551 -314 660 -14 15 -29 27 -32 27 -4 0 -11
-228 -16 -507 -15 -874 -12 -970 34 -1152 10 -38 15 -68 11 -66 -12 8 -126
179 -183 278 -143 243 -191 405 -190 637 1 170 14 253 90 585 30 132 57 249
59 261 4 16 36 30 183 77 98 31 184 57 190 57 7 0 12 5 12 11 0 5 4 8 9 5 7
-5 114 26 181 51 8 3 20 7 25 8 6 2 62 19 125 38 275 85 386 120 404 129 10 6
33 12 49 15 17 3 51 13 76 23 59 23 56 23 93 4z"/>
<path d="M13470 15555 l0 -215 905 0 905 0 2 -1130 3 -1131 67 53 c37 29 149
103 250 164 l183 111 3 1094 c2 766 0 1105 -8 1132 -14 47 -65 106 -107 123
-27 12 -229 14 -1118 14 l-1085 0 0 -215z"/>
<path d="M10958 13700 c-45 -13 -87 -49 -111 -93 -21 -41 -22 -51 -22 -327 0
-276 1 -286 22 -327 62 -115 231 -138 324 -44 20 20 42 54 48 76 7 24 11 140
11 295 0 155 -4 271 -11 295 -28 99 -152 158 -261 125z m119 -132 c23 -21 23
-22 23 -287 0 -258 -1 -265 -22 -288 -29 -31 -72 -30 -103 2 l-25 24 0 261 0
261 25 24 c30 31 71 32 102 3z"/>
<path d="M12338 13700 c-54 -16 -89 -45 -113 -94 -25 -49 -25 -52 -25 -326 0
-274 0 -276 25 -326 34 -69 87 -99 175 -99 82 1 133 24 168 78 l27 40 3 291
c3 325 -1 355 -61 400 -54 40 -136 55 -199 36z m113 -129 c24 -19 24 -20 27
-278 2 -281 -1 -300 -51 -317 -42 -15 -80 3 -94 44 -15 44 -17 459 -3 512 17
59 74 77 121 39z"/>
<path d="M11700 13286 l0 -416 125 0 c84 0 137 5 158 14 42 17 83 66 97 114
13 49 13 515 0 564 -14 49 -55 97 -100 116 -22 9 -81 17 -157 20 l-123 5 0
-417z m229 277 c33 -27 41 -80 41 -283 0 -263 -10 -293 -97 -294 l-48 -1 -3
285 c-1 157 0 290 3 297 7 19 79 16 104 -4z"/>
<path d="M10370 13635 l0 -55 65 0 65 0 0 -355 0 -355 65 0 65 0 0 355 0 355
65 0 65 0 0 55 0 55 -195 0 -195 0 0 -55z"/>
<path d="M5346 13403 c-11 -46 -111 -193 -218 -318 -85 -99 -292 -305 -307
-305 -3 0 -6 51 -6 113 -1 67 -6 124 -13 141 l-13 29 -28 -44 c-32 -51 -90
-102 -286 -254 -362 -281 -517 -445 -605 -639 -108 -238 -69 -478 111 -670 93
-100 99 -102 145 -71 133 90 255 37 348 -151 25 -51 35 -62 39 -48 3 10 15 63
27 118 26 116 23 162 -20 322 -16 60 -30 111 -30 114 0 3 34 -11 76 -31 178
-87 463 -92 764 -14 52 13 113 30 134 38 l40 14 -112 44 c-62 24 -112 47 -112
50 0 3 31 18 70 33 164 64 312 180 372 292 64 119 75 286 27 406 l-11 27 -44
-34 c-25 -18 -85 -54 -133 -79 l-89 -46 35 79 c49 116 66 205 60 331 -6 133
-38 231 -140 437 -70 139 -75 146 -81 116z"/>
<path d="M11330 13280 l0 -60 125 0 125 0 0 60 0 60 -125 0 -125 0 0 -60z"/>
<path d="M15721 12669 c-90 -66 -208 -127 -331 -170 l-105 -37 -3 -499 -2
-500 46 -69 c96 -142 161 -312 189 -489 l6 -40 -19 30 c-11 17 -35 44 -53 62
-34 31 -145 103 -161 103 -4 0 -8 -1260 -8 -2800 l0 -2801 -64 -79 c-114 -140
-164 -274 -175 -466 l-6 -112 -115 -82 c-235 -167 -462 -371 -559 -502 l-43
-58 -3289 0 -3289 0 0 1290 c0 710 -3 1290 -7 1290 -5 0 -26 -26 -48 -56 -84
-117 -254 -258 -403 -333 l-62 -31 2 -1508 3 -1507 23 -38 c13 -20 40 -50 60
-65 l35 -27 4146 -3 c2280 -1 4156 0 4168 3 35 8 94 65 114 110 17 37 19 80
19 613 0 504 2 573 15 578 46 18 265 325 265 371 0 25 -32 26 -79 3 -45 -22
-177 -70 -193 -70 -4 0 -8 70 -8 155 l0 155 44 0 c58 0 184 -24 266 -51 36
-12 157 -61 270 -109 113 -48 241 -99 285 -113 360 -113 678 -17 988 298 96
97 215 262 275 382 27 53 29 63 16 73 -11 10 -29 9 -87 -8 -266 -78 -443 -103
-967 -142 -298 -22 -478 -42 -609 -66 -46 -8 -85 -14 -86 -12 -2 2 105 58 238
125 526 266 801 441 1017 648 36 34 92 78 125 98 198 118 397 331 529 565 141
250 227 511 361 1092 85 369 125 524 181 693 25 76 43 144 40 152 -11 30 -41
15 -68 -34 -43 -77 -165 -254 -313 -456 -75 -103 -164 -228 -197 -278 -120
-183 -233 -447 -281 -657 -9 -36 -32 -153 -52 -260 -87 -468 -155 -638 -338
-843 -99 -110 -276 -247 -492 -377 l-40 -25 23 30 c132 170 219 341 375 735
58 146 158 384 222 530 63 145 114 270 113 277 -5 21 -93 -27 -208 -112 -133
-99 -360 -327 -425 -425 -109 -164 -169 -445 -182 -845 -5 -187 -6 -190 -32
-219 -76 -82 -251 -179 -818 -452 l-173 -83 0 1427 0 1427 28 -43 c16 -23 32
-39 37 -35 4 5 5 3 2 -4 -9 -14 37 -96 48 -86 4 5 5 3 2 -3 -3 -5 7 -38 24
-72 16 -34 29 -66 29 -72 0 -5 7 -7 16 -3 11 4 12 8 4 13 -9 5 -9 9 -1 14 6 4
11 15 11 24 0 15 -2 15 -10 2 -6 -9 -10 -10 -10 -3 0 6 4 14 10 18 5 3 9 154
10 379 l0 373 -30 84 c-17 46 -61 145 -98 219 l-67 135 -5 1851 -5 1850 -64
-47z m-441 -7693 c0 -16 -11 -31 -32 -44 -18 -12 -34 -19 -36 -17 -4 4 58 85
65 85 2 0 3 -11 3 -24z m0 -181 c0 -80 -1 -85 -22 -89 -132 -27 -239 -54 -318
-82 -94 -33 -95 -33 -65 -8 17 14 102 73 190 131 210 139 199 132 208 132 4 1
7 -37 7 -84z m-445 -490 c77 -14 209 -31 293 -37 l152 -12 0 -48 0 -48 -445 0
c-245 0 -445 3 -445 6 0 4 35 42 77 85 l76 79 76 0 c42 0 139 -11 216 -25z"/>
<path d="M16102 12553 c-14 -26 -35 -161 -29 -184 3 -10 1 -21 -4 -24 -5 -4
-8 -16 -7 -28 0 -12 -2 -44 -6 -72 -4 -37 -4 -45 4 -30 9 17 10 17 4 -5 -10
-36 -9 -218 1 -209 4 5 12 80 14 137 1 19 6 22 41 22 l40 0 0 -40 0 -40 40 0
40 0 0 43 c0 23 7 53 16 65 9 13 14 26 11 29 -3 3 -30 9 -59 13 -52 7 -52 8
-12 9 43 1 52 10 49 48 -1 12 3 19 8 16 6 -3 -1 13 -14 37 -24 43 -40 53 -48
29 -2 -7 1 -9 9 -4 9 6 9 3 1 -14 -7 -11 -13 -21 -14 -21 -9 0 0 50 12 63 7
10 9 17 4 17 -5 0 -10 6 -10 13 -1 22 -63 147 -73 147 -5 0 -13 -8 -18 -17z"/>
<path d="M16256 12281 c-3 -5 0 -11 8 -14 17 -7 15 -69 -3 -91 -10 -12 -9 -14
6 -12 11 2 17 10 15 22 -3 15 -1 16 12 5 9 -7 13 -17 10 -22 -3 -5 3 -6 12 -2
12 4 15 3 10 -5 -4 -7 -1 -25 7 -41 13 -26 13 -31 -2 -47 -15 -18 -15 -18 5
-1 20 16 22 16 37 -1 23 -25 22 -39 -1 -19 -17 16 -32 14 -32 -3 0 -4 9 -17
20 -30 11 -13 20 -18 20 -13 0 6 -7 16 -15 23 -8 7 -15 17 -15 23 0 5 8 3 18
-6 10 -10 22 -17 25 -17 13 0 7 27 -8 40 -8 6 -13 17 -12 23 1 7 -4 11 -11 9
-7 -1 -12 3 -11 10 3 20 -19 68 -31 68 -6 0 -8 5 -4 12 5 7 3 8 -5 4 -8 -5
-11 -3 -10 5 3 13 -29 89 -37 89 -1 0 -5 -4 -8 -9z"/>
<path d="M16247 12246 c-4 -10 -1 -13 9 -9 7 3 14 9 14 14 0 14 -17 10 -23 -5z"/>
<path d="M16400 12014 c-8 -8 -9 -14 -4 -13 21 4 26 -2 13 -18 -7 -10 -9 -15
-5 -11 5 4 16 2 25 -5 14 -11 14 -10 2 6 -11 14 -11 17 0 17 9 1 8 4 -4 11 -9
6 -15 14 -12 20 10 15 -1 10 -15 -7z"/>
<path d="M5733 11979 c-18 -5 -33 -12 -33 -15 0 -3 18 -31 39 -64 22 -32 42
-68 46 -80 3 -11 11 -17 17 -14 6 4 9 3 5 -2 -7 -13 58 -135 68 -126 5 4 5 1
1 -6 -7 -12 43 -152 55 -152 7 0 51 60 53 73 1 7 4 17 8 22 22 37 18 192 -5
178 -6 -3 -7 -1 -3 5 6 11 -29 92 -40 92 -3 0 -2 -5 2 -12 5 -7 3 -8 -5 -4 -7
5 -10 10 -7 13 11 11 -16 43 -57 67 -51 30 -101 38 -144 25z"/>
<path d="M16446 11941 c-3 -5 1 -11 9 -15 8 -3 15 -1 15 4 0 13 -18 22 -24 11z"/>
<path d="M16496 11791 c-3 -5 2 -15 12 -22 15 -12 16 -12 5 2 -7 9 -10 19 -6
22 3 4 4 7 0 7 -3 0 -8 -4 -11 -9z"/>
<path d="M5536 11608 c-32 -46 -6 -98 49 -98 38 0 55 20 55 64 0 54 -74 78
-104 34z"/>
<path d="M5036 11408 c-35 -49 -10 -98 49 -98 37 0 55 20 55 63 0 53 -75 77
-104 35z"/>
<path d="M5444 11366 c-19 -14 -19 -15 6 -61 34 -63 43 -69 70 -47 l22 18 -32
52 c-17 29 -35 52 -39 52 -4 0 -16 -6 -27 -14z"/>
<path d="M4225 11251 c-98 -24 -138 -95 -100 -176 21 -43 54 -77 67 -69 6 4 8
3 5 -3 -11 -17 56 -43 108 -43 41 0 46 2 40 18 -31 71 -9 126 55 136 l42 7
-25 42 c-14 23 -33 41 -41 41 -9 -1 -13 2 -11 7 15 24 -86 53 -140 40z"/>
<path d="M9463 11223 c-11 -8 -89 -171 -320 -670 -65 -139 -120 -253 -124
-253 -3 0 -41 54 -84 120 -83 130 -105 146 -150 116 -43 -28 -33 -57 88 -242
116 -180 138 -202 183 -182 16 8 85 148 263 534 229 496 241 526 229 552 -13
28 -59 41 -85 25z"/>
<path d="M5068 11063 c-16 -15 -15 -18 8 -49 39 -50 122 -102 196 -121 58 -15
76 -16 138 -5 73 12 156 48 180 77 11 14 10 19 -7 36 l-20 20 -38 -25 c-50
-34 -106 -49 -181 -48 -76 1 -139 29 -199 88 -49 49 -54 51 -77 27z"/>
<path d="M9807 10823 c-4 -3 -7 -35 -7 -70 l0 -63 1450 0 1451 0 -3 68 -3 67
-1441 3 c-792 1 -1444 -1 -1447 -5z"/>
<path d="M4950 10456 c0 -43 0 -43 58 -69 74 -33 159 -42 242 -25 l65 14 0 43
0 43 -120 3 c-75 2 -139 9 -170 19 -72 23 -75 22 -75 -28z"/>
<path d="M9463 9592 c-10 -6 -293 -604 -408 -859 -15 -35 -31 -63 -35 -63 -5
0 -43 54 -85 119 -79 124 -103 143 -145 121 -21 -11 -36 -51 -27 -73 3 -8 55
-91 116 -184 71 -108 119 -173 132 -176 53 -14 56 -10 307 536 209 451 241
528 233 549 -13 34 -57 49 -88 30z"/>
<path d="M8340 9519 c0 -15 101 -332 104 -327 33 42 156 229 156 237 0 5 -24
17 -52 27 -29 9 -88 30 -130 45 -45 16 -78 24 -78 18z"/>
<path d="M9807 9173 c-4 -3 -7 -35 -7 -70 l0 -63 1450 0 1451 0 -3 68 -3 67
-1441 3 c-792 1 -1444 -1 -1447 -5z"/>
<path d="M6736 8753 c-10 -3 -15 -8 -10 -12 5 -3 16 -22 25 -41 l16 -35 4 48
c4 47 2 49 -35 40z"/>
<path d="M6553 8692 c-8 -5 -5 -15 10 -34 l22 -27 -1 31 c-1 33 -11 43 -31 30z"/>
<path d="M9440 7890 c-30 -58 -379 -809 -397 -852 -8 -21 -18 -38 -22 -38 -3
0 -37 49 -76 107 -38 59 -78 115 -87 125 -37 37 -98 10 -98 -43 0 -14 49 -97
118 -199 105 -157 120 -175 148 -178 41 -4 51 10 121 163 33 72 138 299 233
505 95 205 173 384 173 397 0 34 -21 53 -59 53 -29 0 -36 -5 -54 -40z"/>
<path d="M15977 7737 c-4 -10 -7 -26 -7 -35 1 -15 2 -15 11 1 6 10 9 25 7 35
-3 16 -4 15 -11 -1z"/>
<path d="M9800 7480 l0 -70 1448 2 1447 3 0 65 0 65 -1447 3 -1448 2 0 -70z"/>
<path d="M18166 4563 c-39 -7 -74 -17 -80 -23 -14 -14 -29 -13 -20 1 9 16 -54
-22 -69 -40 -9 -11 -9 -13 0 -8 6 4 18 0 26 -8 20 -19 33 -20 17 0 -13 16 -3
20 16 7 16 -10 14 -44 -2 -38 -8 3 -16 1 -19 -5 -4 -5 -3 -9 2 -8 4 1 15 1 23
0 13 -1 13 -2 0 -12 -13 -9 -13 -10 0 -6 8 2 14 10 13 16 -2 6 4 11 13 11 14
0 14 3 4 15 -7 8 -9 15 -4 15 5 0 2 5 -6 10 -12 7 -12 10 -1 10 7 0 11 6 8 14
-6 14 12 26 39 26 8 0 14 -4 14 -9 0 -5 -8 -7 -18 -4 -13 3 -18 -2 -20 -21 -1
-14 3 -28 8 -31 6 -4 7 -12 3 -18 -3 -7 2 -5 13 4 10 9 30 25 43 35 13 10 32
27 43 37 10 9 18 14 18 10 0 -4 5 -2 12 5 23 23 -6 29 -76 15z m7 -27 c6 -16
-49 -70 -58 -56 -3 5 8 16 24 25 20 10 28 20 25 30 -4 8 -4 15 -1 15 3 0 7 -6
10 -14z m-98 -25 c-4 -3 -20 -6 -38 -7 -31 -2 -31 -2 -7 11 23 12 58 9 45 -4z"/>
<path d="M18014 4412 c4 -3 14 -7 22 -8 9 -1 13 0 10 4 -4 3 -14 7 -22 8 -9 1
-13 0 -10 -4z"/>
<path d="M10566 1535 c-3 -9 -1 -25 4 -35 15 -27 14 -28 -31 -40 -40 -11 -51
-38 -13 -32 10 1 52 6 93 10 84 8 108 29 39 34 -42 3 -43 4 -43 38 0 28 -4 36
-21 38 -13 2 -24 -4 -28 -13z"/>
<path d="M10787 1416 c-3 -8 6 -24 20 -37 14 -13 38 -40 53 -61 18 -25 31 -34
40 -28 11 7 10 13 -3 34 -22 33 -21 43 3 49 11 3 20 12 20 21 0 24 -31 32 -45
13 -16 -22 -21 -21 -55 3 -22 16 -29 17 -33 6z"/>
<path d="M11144 1396 c-21 -17 -29 -35 -33 -72 -5 -44 -9 -49 -33 -52 -25 -3
-28 -8 -28 -38 0 -31 2 -34 30 -34 l30 0 0 -105 0 -105 35 0 35 0 0 105 0 105
45 0 c45 0 45 0 45 34 0 34 -1 35 -42 38 -35 2 -44 7 -46 24 -5 32 25 57 60
50 26 -5 28 -3 28 28 0 38 -12 46 -65 46 -21 0 -44 -9 -61 -24z"/>
<path d="M12449 1401 c-20 -16 -22 -23 -14 -47 18 -51 95 -42 95 11 0 22 -28
55 -47 55 -6 0 -21 -9 -34 -19z"/>
<path d="M10524 1386 c-86 -40 -134 -118 -134 -219 0 -44 2 -46 38 -58 46 -16
219 -15 287 0 28 7 74 23 103 37 47 23 52 29 52 57 -1 71 -68 161 -146 193
-52 22 -141 18 -200 -10z m71 -111 c40 -39 29 -97 -22 -116 -48 -18 -103 23
-103 77 0 24 47 64 75 64 14 0 37 -11 50 -25z m175 5 c11 -11 20 -28 20 -37 0
-23 -30 -53 -53 -53 -26 0 -57 28 -57 52 0 22 34 58 55 58 8 0 24 -9 35 -20z"/>
<path d="M12570 1200 l0 -210 40 0 40 0 0 52 0 52 53 -52 c49 -48 56 -52 101
-52 l48 0 -66 71 c-36 39 -66 75 -66 79 0 5 30 36 68 69 l67 61 -49 0 c-44 0
-54 -5 -102 -46 l-54 -46 0 116 0 116 -40 0 -40 0 0 -210z"/>
<path d="M7380 1310 l0 -70 -32 20 c-39 24 -67 25 -113 6 -97 -41 -96 -232 2
-272 43 -18 96 -13 124 12 18 16 19 16 19 1 0 -11 8 -17 25 -17 21 0 25 5 25
31 0 30 1 31 35 26 19 -3 50 -18 69 -32 57 -44 160 -43 197 1 20 25 -3 37 -37
19 -44 -23 -85 -19 -121 13 -18 15 -33 36 -35 47 -3 19 3 20 110 23 l112 3 0
25 c0 42 -36 100 -74 118 -43 20 -79 20 -123 -1 -56 -26 -75 -65 -71 -146 3
-54 1 -66 -10 -62 -7 3 -22 5 -33 5 -18 0 -19 9 -19 160 l0 160 -25 0 c-24 0
-25 -2 -25 -70z m-19 -96 c15 -13 19 -31 19 -81 l0 -65 -32 7 c-65 13 -130 37
-135 51 -9 23 6 64 33 91 21 21 32 24 61 20 20 -4 44 -14 54 -23z m310 16 c16
-9 49 -58 49 -75 0 -3 -43 -5 -95 -5 -52 0 -95 2 -95 5 0 15 32 65 47 74 23
13 69 14 94 1z"/>
<path d="M9340 1310 l0 -70 -32 20 c-41 25 -84 25 -124 1 -84 -51 -85 -210 -2
-261 42 -25 84 -25 126 0 26 16 32 17 32 5 0 -9 10 -15 25 -15 l25 0 0 195 0
195 -25 0 c-24 0 -25 -2 -25 -70z m-19 -96 c15 -14 19 -31 19 -84 0 -77 -14
-97 -73 -107 -31 -5 -40 -1 -67 25 -26 26 -30 38 -30 82 0 44 4 56 30 82 27
26 36 30 67 25 19 -4 44 -14 54 -23z"/>
<path d="M9600 1185 c0 -188 1 -195 20 -195 11 0 20 7 20 15 0 12 6 11 33 -5
41 -25 83 -25 125 0 83 51 83 209 0 260 -42 25 -84 25 -125 0 l-33 -20 0 70
c0 63 -2 70 -20 70 -19 0 -20 -7 -20 -195z m173 35 c79 -63 32 -212 -62 -196
-57 9 -71 30 -71 108 0 66 1 69 33 88 41 25 68 25 100 0z"/>
<path d="M10384 1353 c-18 -23 -22 -24 -42 -12 -16 10 -24 11 -33 2 -16 -16
-3 -43 21 -43 17 0 19 -4 14 -27 -10 -44 -10 -48 4 -48 8 0 19 16 26 36 7 20
23 50 35 68 12 17 19 35 16 41 -9 15 -18 11 -41 -17z"/>
<path d="M8074 1355 c-8 -21 2 -45 19 -45 21 0 38 25 31 44 -8 20 -43 21 -50
1z"/>
<path d="M7860 1273 c-30 -11 -60 -47 -60 -73 0 -42 21 -60 95 -84 56 -18 71
-27 73 -45 2 -12 -2 -29 -8 -37 -18 -20 -79 -17 -117 6 -32 19 -33 19 -43 1
-8 -15 -5 -22 16 -36 38 -25 114 -31 152 -11 87 45 62 129 -49 160 -71 20 -89
38 -64 66 22 25 81 27 114 4 19 -14 25 -14 31 -3 12 18 3 29 -36 45 -34 14
-76 17 -104 7z"/>
<path d="M8244 1265 c-44 -23 -64 -63 -64 -132 0 -66 13 -97 52 -126 33 -25
98 -26 134 -3 14 10 28 15 31 13 12 -12 -11 -68 -35 -88 -32 -25 -101 -22
-132 6 -17 16 -19 16 -29 -3 -24 -46 100 -76 177 -43 54 23 62 50 62 226 0
148 -1 155 -20 155 -11 0 -20 -7 -20 -15 0 -19 -9 -19 -31 1 -25 23 -88 28
-125 9z m116 -40 c34 -18 42 -42 38 -110 -3 -44 -7 -52 -38 -73 -82 -55 -168
41 -126 141 22 54 71 70 126 42z"/>
<path d="M8598 1262 c-30 -16 -38 -17 -38 -6 0 8 -10 14 -25 14 l-25 0 0 -140
0 -140 25 0 25 0 0 103 c0 116 7 131 68 143 24 5 38 2 52 -11 18 -16 20 -31
20 -127 l0 -108 26 0 26 0 -4 125 c-3 141 -9 153 -74 161 -27 4 -51 -1 -76
-14z"/>
<path d="M8881 1263 c-18 -9 -42 -31 -52 -47 -25 -42 -25 -130 0 -172 22 -35
75 -64 120 -64 36 0 95 22 106 40 14 22 -10 31 -41 15 -45 -23 -89 -19 -123
13 -17 15 -31 36 -33 47 -3 19 3 20 110 23 l112 3 0 27 c0 66 -68 132 -135
132 -16 0 -45 -8 -64 -17z m110 -33 c16 -9 49 -58 49 -75 0 -3 -43 -5 -95 -5
-52 0 -95 2 -95 5 0 15 32 65 47 74 23 13 69 14 94 1z"/>
<path d="M11402 1264 c-12 -8 -22 -10 -22 -5 0 6 -18 11 -40 11 l-40 0 0 -140
0 -140 40 0 40 0 0 90 c0 77 3 93 20 110 11 11 30 20 43 20 23 0 63 51 50 64
-12 12 -69 6 -91 -10z"/>
<path d="M11553 1261 c-44 -27 -63 -60 -69 -117 -10 -93 54 -164 148 -164 46
0 118 24 118 39 0 3 -8 16 -18 29 -17 22 -18 22 -57 7 -47 -19 -87 -9 -105 25
-10 20 -8 20 89 20 58 0 102 4 106 10 14 23 -8 93 -39 128 -28 30 -40 36 -87
39 -42 3 -61 0 -86 -16z m125 -78 l14 -23 -66 0 c-69 0 -71 2 -43 38 16 21 77
11 95 -15z"/>
<path d="M11861 1262 c-95 -51 -94 -212 0 -264 42 -24 133 -21 174 6 l27 18
-25 26 c-22 21 -28 23 -41 13 -34 -29 -126 -6 -126 31 0 4 45 8 100 8 l100 0
0 43 c0 108 -111 171 -209 119z m113 -68 c27 -27 18 -34 -44 -34 -33 0 -60 3
-60 7 0 3 7 15 17 25 20 22 66 24 87 2z"/>
<path d="M12208 1264 c-16 -8 -28 -10 -28 -4 0 5 -16 10 -35 10 l-35 0 0 -200
0 -200 35 0 35 0 0 71 0 71 25 -16 c13 -9 40 -16 60 -16 108 0 173 109 127
214 -34 76 -116 107 -184 70z m76 -65 c72 -33 46 -149 -34 -149 -32 0 -70 44
-70 80 0 19 9 40 25 55 27 28 42 30 79 14z"/>
<path d="M8070 1130 l0 -140 25 0 25 0 0 140 0 140 -25 0 -25 0 0 -140z"/>
<path d="M9880 1265 c0 -3 25 -66 55 -140 58 -141 61 -167 24 -200 -10 -10
-25 -15 -33 -12 -17 7 -31 -22 -17 -36 7 -7 23 -6 50 1 44 14 46 17 124 207
25 61 53 127 62 148 l16 38 -26 -3 c-23 -3 -32 -15 -68 -105 -23 -56 -45 -104
-48 -107 -3 -3 -25 44 -50 104 -37 95 -47 110 -66 110 -13 0 -23 -2 -23 -5z"/>
<path d="M12440 1130 l0 -140 40 0 40 0 0 140 0 140 -40 0 -40 0 0 -140z"/>
<path d="M10789 1104 c-73 -31 -214 -47 -299 -35 -36 5 -67 7 -70 4 -10 -10
93 -93 128 -103 78 -21 166 -9 225 33 49 33 109 130 80 126 -5 -1 -33 -12 -64
-25z"/>
</g>
</svg>
